# xmcd
#
# Track frame offsets:
#	182
#	15590
#	25175
#	35067
#	52105
#	66115
#	75927
#	88080
#	98190
#	110545
#	122550
#	130710
#	140222
#	152775
#	165522
#	178077
#
# Disc length: 2520 seconds
#
# Revision: 3
# Processed by: cddbd v1.5.2PL0 Copyright (c) Steve Scherf et al.
# Submitted via: EasyCDDAExtractor 15.2.5.1
#
DISCID=d209d610
DTITLE=Ike And Tina Turner - Too Hot To Hold
DYEAR=1992
DGENRE=blues
TTITLE0=Crazy 'Bout You Baby
TTITLE1=Too Hot To Cold
TTITLE2=Please Love Me
TTITLE3=I Smell Trouble
TTITLE4=It Sho Ain't Me
TTITLE5=Beauty Is Just Skin Deep
TTITLE6=We Need Understanding
TTITLE7=Shake A Tailfeather
TTITLE8=Rock Me Baby
TTITLE9=So Fine
TTITLE10=My Babe
TTITLE11=Ain't Nobody's Business
TTITLE12=I Better Getta Steppin'
TTITLE13=Betcha Can't Kiss Me (Just One Time)
TTITLE14=A Fool In Love
TTITLE15=Your So Fine
EXTD=
EXTT0=
EXTT1=
EXTT2=
EXTT3=
EXTT4=
EXTT5=
EXTT6=
EXTT7=
EXTT8=
EXTT9=
EXTT10=
EXTT11=
EXTT12=
EXTT13=
EXTT14=
EXTT15=
PLAYORDER=
